<?xml version="1.0" encoding="UTF-8" standalone="no"?>
<!-- Created with Inkscape (http://www.inkscape.org/) -->

<svg
   xmlns:dc="http://purl.org/dc/elements/1.1/"
   xmlns:cc="http://creativecommons.org/ns#"
   xmlns:rdf="http://www.w3.org/1999/02/22-rdf-syntax-ns#"
   xmlns:svg="http://www.w3.org/2000/svg"
   xmlns="http://www.w3.org/2000/svg"
   xmlns:sodipodi="http://sodipodi.sourceforge.net/DTD/sodipodi-0.dtd"
   xmlns:inkscape="http://www.inkscape.org/namespaces/inkscape"
   version="1.1"
   id="svg2"
   xml:space="preserve"
   width="1542.4021"
   height="288.25214"
   viewBox="0 0 1542.4021 288.25214"
   sodipodi:docname="Fig04.svg"
   inkscape:version="0.92.4 (5da689c313, 2019-01-14)"><metadata
     id="metadata8"><rdf:RDF><cc:Work
         rdf:about=""><dc:format>image/svg+xml</dc:format><dc:type
           rdf:resource="http://purl.org/dc/dcmitype/StillImage" /><dc:title></dc:title></cc:Work></rdf:RDF></metadata><defs
     id="defs6"><clipPath
       clipPathUnits="userSpaceOnUse"
       id="clipPath18"><path
         d="M 1,0 H 9919 V 7014 H 1 V 0"
         id="path16"
         inkscape:connector-curvature="0" /></clipPath><clipPath
       clipPathUnits="userSpaceOnUse"
       id="clipPath102"><path
         d="M 1,0 H 9919 V 7014 H 1 V 0"
         id="path100"
         inkscape:connector-curvature="0" /></clipPath><clipPath
       clipPathUnits="userSpaceOnUse"
       id="clipPath114"><path
         d="M 1,0 H 9919 V 7014 H 1 V 0"
         id="path112"
         inkscape:connector-curvature="0" /></clipPath><clipPath
       clipPathUnits="userSpaceOnUse"
       id="clipPath248"><path
         d="M 0,0 H 9921 V 7015 H 0 V 0"
         id="path246"
         inkscape:connector-curvature="0" /></clipPath></defs><sodipodi:namedview
     pagecolor="#ffffff"
     bordercolor="#666666"
     borderopacity="1"
     objecttolerance="10"
     gridtolerance="10"
     guidetolerance="10"
     inkscape:pageopacity="0"
     inkscape:pageshadow="2"
     inkscape:window-width="1920"
     inkscape:window-height="1001"
     id="namedview4"
     showgrid="false"
     inkscape:zoom="0.62165164"
     inkscape:cx="1317.8068"
     inkscape:cy="114.80209"
     inkscape:window-x="-9"
     inkscape:window-y="-9"
     inkscape:window-maximized="1"
     inkscape:current-layer="g10" /><g
     id="g10"
     inkscape:groupmode="layer"
     inkscape:label="Fig04"
     transform="matrix(0.16,0,0,-0.16,-24.6952,750.97293)"><g
       id="g12"><g
         id="g14"
         clip-path="url(#clipPath18)"><path
           d="M 8279,0 V 4393 H 1651 V 0"
           style="fill:none;stroke:#000000;stroke-width:6;stroke-linecap:round;stroke-linejoin:round;stroke-miterlimit:10;stroke-dasharray:none;stroke-opacity:1"
           id="path20"
           inkscape:connector-curvature="0" /><path
           d="m 2574,3793.5 c 0,182.53 -147.97,330.5 -330.5,330.5 -182.53,0 -330.5,-147.97 -330.5,-330.5 0,-182.53 147.97,-330.5 330.5,-330.5 182.53,0 330.5,147.97 330.5,330.5"
           style="fill:none;stroke:#000000;stroke-width:6;stroke-linecap:round;stroke-linejoin:round;stroke-miterlimit:10;stroke-dasharray:none;stroke-opacity:1"
           id="path22"
           inkscape:connector-curvature="0" /><path
           d="m 3704,3314.5 c 0,337.1699 -273.3301,610.5 -610.5,610.5 -337.1699,0 -610.5,-273.3301 -610.5,-610.5 0,-337.1699 273.3301,-610.5 610.5,-610.5 337.1699,0 610.5,273.3301 610.5,610.5"
           style="fill:none;stroke:#000000;stroke-width:6;stroke-linecap:round;stroke-linejoin:round;stroke-miterlimit:10;stroke-dasharray:none;stroke-opacity:1"
           id="path24"
           inkscape:connector-curvature="0" /><path
           d="m 3730.8755,4393.8423 c -132.8176,-188.3565 -103.2351,-446.3779 68.7668,-599.7861 172.002,-153.4082 431.7137,-153.4082 603.7151,0 172.002,153.4082 201.585,411.4296 68.7671,599.7861"
           style="fill:none;stroke:#000000;stroke-width:6;stroke-linecap:round;stroke-linejoin:round;stroke-miterlimit:10;stroke-dasharray:none;stroke-opacity:1"
           id="path26"
           inkscape:connector-curvature="0" /><path
           d="m 2657.8035,4394.0688 c -79.8391,-105.7314 -66.0161,-254.8701 31.8957,-344.1264 97.9119,-89.2566 247.6897,-89.2566 345.6016,0 97.9119,89.2563 111.7348,238.395 31.8957,344.1264"
           style="fill:none;stroke:#000000;stroke-width:6;stroke-linecap:round;stroke-linejoin:round;stroke-miterlimit:10;stroke-dasharray:none;stroke-opacity:1"
           id="path28"
           inkscape:connector-curvature="0" /><path
           d="m 4522,4393.5 c 0,-244.9385 198.5615,-443.5 443.5,-443.5 244.9385,0 443.5,198.5615 443.5,443.5"
           style="fill:none;stroke:#000000;stroke-width:6;stroke-linecap:round;stroke-linejoin:round;stroke-miterlimit:10;stroke-dasharray:none;stroke-opacity:1"
           id="path30"
           inkscape:connector-curvature="0" /><path
           d="m 3268.5955,4394.3501 c -43.9656,-39.0044 -59.2432,-101.1255 -38.3831,-156.0723 C 3251.0725,4183.3315 3303.7268,4147 3362.5,4147 c 58.7732,0 111.4275,36.3315 132.2876,91.2778 20.8601,54.9468 5.5825,117.0679 -38.3831,156.0723"
           style="fill:none;stroke:#000000;stroke-width:6;stroke-linecap:round;stroke-linejoin:round;stroke-miterlimit:10;stroke-dasharray:none;stroke-opacity:1"
           id="path32"
           inkscape:connector-curvature="0" /><path
           d="m 1677.6918,4394.0259 c -26.7407,-110.5699 17.4891,-226.1768 111.204,-290.6621 93.7147,-64.4851 217.4937,-64.4851 311.2084,0 93.7149,64.4853 137.9446,180.0922 111.2042,290.6621"
           style="fill:none;stroke:#000000;stroke-width:6;stroke-linecap:round;stroke-linejoin:round;stroke-miterlimit:10;stroke-dasharray:none;stroke-opacity:1"
           id="path34"
           inkscape:connector-curvature="0" /><path
           d="m 2250.3245,4393.9058 c -43.3089,-68.4649 -29.9507,-158.3208 31.4016,-211.2266 61.3523,-52.9058 152.1955,-52.9058 213.5478,0 61.3523,52.9058 74.7105,142.7617 31.4016,211.2266"
           style="fill:none;stroke:#000000;stroke-width:6;stroke-linecap:round;stroke-linejoin:round;stroke-miterlimit:10;stroke-dasharray:none;stroke-opacity:1"
           id="path36"
           inkscape:connector-curvature="0" /><path
           d="m 2632,4093.5 c 0,45.5635 -36.9365,82.5 -82.5,82.5 -45.5635,0 -82.5,-36.9365 -82.5,-82.5 0,-45.5635 36.9365,-82.5 82.5,-82.5 45.5635,0 82.5,36.9365 82.5,82.5"
           style="fill:none;stroke:#000000;stroke-width:6;stroke-linecap:round;stroke-linejoin:round;stroke-miterlimit:10;stroke-dasharray:none;stroke-opacity:1"
           id="path38"
           inkscape:connector-curvature="0" /><path
           d="m 2752,3912.5 c 0,52.7432 -42.7568,95.5 -95.5,95.5 -52.7432,0 -95.5,-42.7568 -95.5,-95.5 0,-52.7432 42.7568,-95.5 95.5,-95.5 52.7432,0 95.5,42.7568 95.5,95.5"
           style="fill:none;stroke:#000000;stroke-width:6;stroke-linecap:round;stroke-linejoin:round;stroke-miterlimit:10;stroke-dasharray:none;stroke-opacity:1"
           id="path40"
           inkscape:connector-curvature="0" /><path
           d="m 3654,4015.5 c 0,87.5371 -70.9629,158.5 -158.5,158.5 -87.5371,0 -158.5,-70.9629 -158.5,-158.5 0,-87.5371 70.9629,-158.5 158.5,-158.5 87.5371,0 158.5,70.9629 158.5,158.5"
           style="fill:none;stroke:#000000;stroke-width:6;stroke-linecap:round;stroke-linejoin:round;stroke-miterlimit:10;stroke-dasharray:none;stroke-opacity:1"
           id="path42"
           inkscape:connector-curvature="0" /><path
           d="m 3322,4058.5 c 0,65.998 -53.5019,119.5 -119.5,119.5 -65.998,0 -119.5,-53.502 -119.5,-119.5 0,-65.998 53.502,-119.5 119.5,-119.5 65.9981,0 119.5,53.502 119.5,119.5"
           style="fill:none;stroke:#000000;stroke-width:6;stroke-linecap:round;stroke-linejoin:round;stroke-miterlimit:10;stroke-dasharray:none;stroke-opacity:1"
           id="path44"
           inkscape:connector-curvature="0" /><path
           d="m 4969,3689.5 c 0,154.9158 -125.584,280.5 -280.5,280.5 -154.916,0 -280.5,-125.5842 -280.5,-280.5 0,-154.9158 125.584,-280.5 280.5,-280.5 154.916,0 280.5,125.5842 280.5,280.5"
           style="fill:none;stroke:#000000;stroke-width:6;stroke-linecap:round;stroke-linejoin:round;stroke-miterlimit:10;stroke-dasharray:none;stroke-opacity:1"
           id="path46"
           inkscape:connector-curvature="0" /><path
           d="m 4455,3249.5 c 0,207.3828 -168.1172,375.5 -375.5,375.5 -207.3828,0 -375.5,-168.1172 -375.5,-375.5 0,-207.3828 168.1172,-375.5 375.5,-375.5 207.3828,0 375.5,168.1172 375.5,375.5"
           style="fill:none;stroke:#000000;stroke-width:6;stroke-linecap:round;stroke-linejoin:round;stroke-miterlimit:10;stroke-dasharray:none;stroke-opacity:1"
           id="path48"
           inkscape:connector-curvature="0" /><path
           d="m 5324,3821.5 c 0,87.5371 -70.9629,158.5 -158.5,158.5 -87.5371,0 -158.5,-70.9629 -158.5,-158.5 0,-87.5371 70.9629,-158.5 158.5,-158.5 87.5371,0 158.5,70.9629 158.5,158.5"
           style="fill:none;stroke:#000000;stroke-width:6;stroke-linecap:round;stroke-linejoin:round;stroke-miterlimit:10;stroke-dasharray:none;stroke-opacity:1"
           id="path50"
           inkscape:connector-curvature="0" /><path
           d="m 5409,3419.5 c 0,134.4815 -109.0186,243.5 -243.5,243.5 -134.4815,0 -243.5,-109.0185 -243.5,-243.5 0,-134.4814 109.0185,-243.5 243.5,-243.5 134.4814,0 243.5,109.0186 243.5,243.5"
           style="fill:none;stroke:#000000;stroke-width:6;stroke-linecap:round;stroke-linejoin:round;stroke-miterlimit:10;stroke-dasharray:none;stroke-opacity:1"
           id="path52"
           inkscape:connector-curvature="0" /><path
           d="m 5009,3106.5 c 0,154.9158 -125.584,280.5 -280.5,280.5 -154.916,0 -280.5,-125.5842 -280.5,-280.5 0,-154.9158 125.584,-280.5 280.5,-280.5 154.916,0 280.5,125.5842 280.5,280.5"
           style="fill:none;stroke:#000000;stroke-width:6;stroke-linecap:round;stroke-linejoin:round;stroke-miterlimit:10;stroke-dasharray:none;stroke-opacity:1"
           id="path54"
           inkscape:connector-curvature="0" /><path
           d="m 5741.6157,4393.0708 c -171.2563,-458.8257 -19.3784,-975.529 373,-1268.9814 392.3784,-293.4524 931.3902,-293.4524 1323.7686,0 392.3784,293.4524 544.2563,810.1557 373,1268.9814"
           style="fill:none;stroke:#000000;stroke-width:6;stroke-linecap:round;stroke-linejoin:round;stroke-miterlimit:10;stroke-dasharray:none;stroke-opacity:1"
           id="path56"
           inkscape:connector-curvature="0" /><path
           d="m 5435.1313,4393.165 c -40.8877,-55.6196 -33.0302,-133.1631 18.1841,-179.4497 51.2144,-46.2871 129.1548,-46.2871 180.3692,0 51.2143,46.2866 59.0717,123.8301 18.184,179.4497"
           style="fill:none;stroke:#000000;stroke-width:6;stroke-linecap:round;stroke-linejoin:round;stroke-miterlimit:10;stroke-dasharray:none;stroke-opacity:1"
           id="path58"
           inkscape:connector-curvature="0" /><path
           d="m 5670,3991.5 c 0,103.5535 -83.9468,187.5 -187.5,187.5 -103.5532,0 -187.5,-83.9465 -187.5,-187.5 0,-103.5535 83.9468,-187.5 187.5,-187.5 103.5532,0 187.5,83.9465 187.5,187.5"
           style="fill:none;stroke:#000000;stroke-width:6;stroke-linecap:round;stroke-linejoin:round;stroke-miterlimit:10;stroke-dasharray:none;stroke-opacity:1"
           id="path60"
           inkscape:connector-curvature="0" /><path
           d="m 5731,3610.5 c 0,99.135 -80.3648,179.5 -179.5,179.5 -99.1353,0 -179.5,-80.365 -179.5,-179.5 0,-99.135 80.3647,-179.5 179.5,-179.5 99.1352,0 179.5,80.365 179.5,179.5"
           style="fill:none;stroke:#000000;stroke-width:6;stroke-linecap:round;stroke-linejoin:round;stroke-miterlimit:10;stroke-dasharray:none;stroke-opacity:1"
           id="path62"
           inkscape:connector-curvature="0" /><path
           d="m 8275,4089.5 c 0,109.0762 -88.4238,197.5 -197.5,197.5 -109.0762,0 -197.5,-88.4238 -197.5,-197.5 0,-109.0762 88.4238,-197.5 197.5,-197.5 109.0762,0 197.5,88.4238 197.5,197.5"
           style="fill:none;stroke:#000000;stroke-width:6;stroke-linecap:round;stroke-linejoin:round;stroke-miterlimit:10;stroke-dasharray:none;stroke-opacity:1"
           id="path64"
           inkscape:connector-curvature="0" /><path
           d="m 8229,3721.5 c 0,94.7168 -76.7832,171.5 -171.5,171.5 -94.7168,0 -171.5,-76.7832 -171.5,-171.5 0,-94.7168 76.7832,-171.5 171.5,-171.5 94.7168,0 171.5,76.7832 171.5,171.5"
           style="fill:none;stroke:#000000;stroke-width:6;stroke-linecap:round;stroke-linejoin:round;stroke-miterlimit:10;stroke-dasharray:none;stroke-opacity:1"
           id="path66"
           inkscape:connector-curvature="0" /><path
           d="m 8274,3135.5 c 0,182.53 -147.9697,330.5 -330.5,330.5 -182.5303,0 -330.5,-147.97 -330.5,-330.5 0,-182.53 147.9697,-330.5 330.5,-330.5 182.5303,0 330.5,147.97 330.5,330.5"
           style="fill:none;stroke:#000000;stroke-width:6;stroke-linecap:round;stroke-linejoin:round;stroke-miterlimit:10;stroke-dasharray:none;stroke-opacity:1"
           id="path68"
           inkscape:connector-curvature="0" /><path
           d="m 6011,3042.5 c 0,196.8894 -159.6104,356.5 -356.5,356.5 -196.8897,0 -356.5,-159.6106 -356.5,-356.5 0,-196.8894 159.6103,-356.5 356.5,-356.5 196.8896,0 356.5,159.6106 356.5,356.5"
           style="fill:none;stroke:#000000;stroke-width:6;stroke-linecap:round;stroke-linejoin:round;stroke-miterlimit:10;stroke-dasharray:none;stroke-opacity:1"
           id="path70"
           inkscape:connector-curvature="0" /><path
           d="m 6535,2697.5 c 0,152.7068 -123.7935,276.5 -276.5,276.5 -152.7065,0 -276.5,-123.7932 -276.5,-276.5 0,-152.7068 123.7935,-276.5 276.5,-276.5 152.7065,0 276.5,123.7932 276.5,276.5"
           style="fill:none;stroke:#000000;stroke-width:6;stroke-linecap:round;stroke-linejoin:round;stroke-miterlimit:10;stroke-dasharray:none;stroke-opacity:1"
           id="path72"
           inkscape:connector-curvature="0" /><path
           d="m 7218,2726.5 c 0,109.6284 -88.8716,198.5 -198.5,198.5 -109.6284,0 -198.5,-88.8716 -198.5,-198.5 0,-109.6284 88.8716,-198.5 198.5,-198.5 109.6284,0 198.5,88.8716 198.5,198.5"
           style="fill:none;stroke:#000000;stroke-width:6;stroke-linecap:round;stroke-linejoin:round;stroke-miterlimit:10;stroke-dasharray:none;stroke-opacity:1"
           id="path74"
           inkscape:connector-curvature="0" /><path
           d="m 6796,2773.5 c 0,73.73 -59.77,133.5 -133.5,133.5 -73.73,0 -133.5,-59.77 -133.5,-133.5 0,-73.73 59.77,-133.5 133.5,-133.5 73.73,0 133.5,59.77 133.5,133.5"
           style="fill:none;stroke:#000000;stroke-width:6;stroke-linecap:round;stroke-linejoin:round;stroke-miterlimit:10;stroke-dasharray:none;stroke-opacity:1"
           id="path76"
           inkscape:connector-curvature="0" /><path
           d="m 7684,2851.5 c 0,133.3767 -108.1231,241.5 -241.5,241.5 -133.377,0 -241.5,-108.1233 -241.5,-241.5 0,-133.3767 108.123,-241.5 241.5,-241.5 133.3769,0 241.5,108.1233 241.5,241.5"
           style="fill:none;stroke:#000000;stroke-width:6;stroke-linecap:round;stroke-linejoin:round;stroke-miterlimit:10;stroke-dasharray:none;stroke-opacity:1"
           id="path78"
           inkscape:connector-curvature="0" /><path
           d="m 5811,2136.5 c 0,373.6206 -302.8794,676.5 -676.5,676.5 -373.6206,0 -676.5,-302.8794 -676.5,-676.5 0,-373.6206 302.8794,-676.5 676.5,-676.5 373.6206,0 676.5,302.8794 676.5,676.5"
           style="fill:none;stroke:#000000;stroke-width:6;stroke-linecap:round;stroke-linejoin:round;stroke-miterlimit:10;stroke-dasharray:none;stroke-opacity:1"
           id="path80"
           inkscape:connector-curvature="0" /><path
           d="m 4342,2372.5 c 0,295.7485 -239.7515,535.5 -535.5,535.5 -295.7485,0 -535.5,-239.7515 -535.5,-535.5 0,-295.7485 239.7515,-535.5 535.5,-535.5 295.7485,0 535.5,239.7515 535.5,535.5"
           style="fill:none;stroke:#000000;stroke-width:6;stroke-linecap:round;stroke-linejoin:round;stroke-miterlimit:10;stroke-dasharray:none;stroke-opacity:1"
           id="path82"
           inkscape:connector-curvature="0" /><path
           d="m 2440,2824.5 c 0,207.9353 -168.5647,376.5 -376.5,376.5 -207.9352,0 -376.5,-168.5647 -376.5,-376.5 0,-207.9353 168.5648,-376.5 376.5,-376.5 207.9353,0 376.5,168.5647 376.5,376.5"
           style="fill:none;stroke:#000000;stroke-width:6;stroke-linecap:round;stroke-linejoin:round;stroke-miterlimit:10;stroke-dasharray:none;stroke-opacity:1"
           id="path84"
           inkscape:connector-curvature="0" /><path
           d="m 1990,3415.5 c 0,90.2986 -73.2014,163.5 -163.5,163.5 -90.2986,0 -163.5,-73.2014 -163.5,-163.5 0,-90.2986 73.2014,-163.5 163.5,-163.5 90.2986,0 163.5,73.2014 163.5,163.5"
           style="fill:none;stroke:#000000;stroke-width:6;stroke-linecap:round;stroke-linejoin:round;stroke-miterlimit:10;stroke-dasharray:none;stroke-opacity:1"
           id="path86"
           inkscape:connector-curvature="0" /><path
           d="M 1512,4396 H 1283"
           style="fill:none;stroke:#000000;stroke-width:6;stroke-linecap:round;stroke-linejoin:round;stroke-miterlimit:10;stroke-dasharray:none;stroke-opacity:1"
           id="path88"
           inkscape:connector-curvature="0" /><path
           d="M 1204,4396 H 886"
           style="fill:none;stroke:#000000;stroke-width:6;stroke-linecap:round;stroke-linejoin:round;stroke-miterlimit:10;stroke-dasharray:none;stroke-opacity:1"
           id="path90"
           inkscape:connector-curvature="0" /><path
           d="M 806,4396 H 488"
           style="fill:none;stroke:#000000;stroke-width:6;stroke-linecap:round;stroke-linejoin:round;stroke-miterlimit:10;stroke-dasharray:none;stroke-opacity:1"
           id="path92"
           inkscape:connector-curvature="0" /><path
           d="M 409,4396 H 180"
           style="fill:none;stroke:#000000;stroke-width:6;stroke-linecap:round;stroke-linejoin:round;stroke-miterlimit:10;stroke-dasharray:none;stroke-opacity:1"
           id="path94"
           inkscape:connector-curvature="0" /></g></g><g
       id="g96"><g
         id="g98"
         clip-path="url(#clipPath102)"><text
           transform="matrix(1,0,0,-1,289,4470)"
           style="font-variant:normal;font-weight:normal;font-size:231.4730072px;font-family:Arial;-inkscape-font-specification:ArialMT;writing-mode:lr-tb;fill:#000000;fill-opacity:1;fill-rule:nonzero;stroke:none"
           id="text106"><tspan
             x="0 115.7365 244.43549 308.78497 373.13449 488.87097 617.56995 733.30646 797.65594 849.04297 977.74194"
             y="0"
             sodipodi:role="line"
             id="tspan104">cut section</tspan></text>
</g></g><g
       id="g108"><g
         id="g110"
         clip-path="url(#clipPath114)"><path
           d="m 8419,4396 h 228"
           style="fill:none;stroke:#000000;stroke-width:6;stroke-linecap:round;stroke-linejoin:round;stroke-miterlimit:10;stroke-dasharray:none;stroke-opacity:1"
           id="path116"
           inkscape:connector-curvature="0" /><path
           d="m 8727,4396 h 318"
           style="fill:none;stroke:#000000;stroke-width:6;stroke-linecap:round;stroke-linejoin:round;stroke-miterlimit:10;stroke-dasharray:none;stroke-opacity:1"
           id="path118"
           inkscape:connector-curvature="0" /><path
           d="m 9125,4396 h 318"
           style="fill:none;stroke:#000000;stroke-width:6;stroke-linecap:round;stroke-linejoin:round;stroke-miterlimit:10;stroke-dasharray:none;stroke-opacity:1"
           id="path120"
           inkscape:connector-curvature="0" /><path
           d="m 9522,4396 h 229"
           style="fill:none;stroke:#000000;stroke-width:6;stroke-linecap:round;stroke-linejoin:round;stroke-miterlimit:10;stroke-dasharray:none;stroke-opacity:1"
           id="path122"
           inkscape:connector-curvature="0" /><text
           transform="matrix(1,0,0,-1,8543,4470)"
           style="font-variant:normal;font-weight:normal;font-size:231.4730072px;font-family:Arial;-inkscape-font-specification:ArialMT;writing-mode:lr-tb;fill:#000000;fill-opacity:1;fill-rule:nonzero;stroke:none"
           id="text126"><tspan
             x="0 115.7365 244.43549 308.78497 373.13449 488.87097 617.56995 733.30646 797.65594 849.04297 977.74194"
             y="0"
             sodipodi:role="line"
             id="tspan124">cut section</tspan></text>
<path
           d="m 3796,4516 h 610"
           style="fill:none;stroke:#000000;stroke-width:6;stroke-linecap:round;stroke-linejoin:round;stroke-miterlimit:10;stroke-dasharray:none;stroke-opacity:1"
           id="path128"
           inkscape:connector-curvature="0" /><g
           id="g130"><path
             d="m 3796,4527 v -22 l -66,11 z"
             style="fill:#000000;fill-opacity:1;fill-rule:nonzero;stroke:#000000;stroke-width:6.25;stroke-linecap:round;stroke-linejoin:miter;stroke-miterlimit:10;stroke-dasharray:none;stroke-opacity:1"
             id="path132"
             inkscape:connector-curvature="0" /></g><g
           id="g134"><path
             d="m 4406,4527 v -22 l 66,11 z"
             style="fill:#000000;fill-opacity:1;fill-rule:nonzero;stroke:#000000;stroke-width:6.25;stroke-linecap:round;stroke-linejoin:miter;stroke-miterlimit:10;stroke-dasharray:none;stroke-opacity:1"
             id="path136"
             inkscape:connector-curvature="0" /></g><text
           transform="matrix(1,0,0,-1,4038,4546)"
           style="font-variant:normal;font-weight:normal;font-size:92.58899689px;font-family:Arial;-inkscape-font-specification:ArialMT;writing-mode:lr-tb;fill:#000000;fill-opacity:1;fill-rule:nonzero;stroke:none"
           id="text140"><tspan
             x="0 51.479485 77.219223"
             y="0"
             sodipodi:role="line"
             id="tspan138">2,8</tspan></text>
<path
           d="M 5342,4516 H 4588"
           style="fill:none;stroke:#000000;stroke-width:6;stroke-linecap:round;stroke-linejoin:round;stroke-miterlimit:10;stroke-dasharray:none;stroke-opacity:1"
           id="path142"
           inkscape:connector-curvature="0" /><g
           id="g144"><path
             d="m 5342,4527 v -22 l 67,11 z"
             style="fill:#000000;fill-opacity:1;fill-rule:nonzero;stroke:#000000;stroke-width:6.25;stroke-linecap:round;stroke-linejoin:miter;stroke-miterlimit:10;stroke-dasharray:none;stroke-opacity:1"
             id="path146"
             inkscape:connector-curvature="0" /></g><g
           id="g148"><path
             d="m 4588,4527 v -22 l -66,11 z"
             style="fill:#000000;fill-opacity:1;fill-rule:nonzero;stroke:#000000;stroke-width:6.25;stroke-linecap:round;stroke-linejoin:miter;stroke-miterlimit:10;stroke-dasharray:none;stroke-opacity:1"
             id="path150"
             inkscape:connector-curvature="0" /></g><text
           transform="matrix(1,0,0,-1,4876,4546)"
           style="font-variant:normal;font-weight:normal;font-size:92.58899689px;font-family:Arial;-inkscape-font-specification:ArialMT;writing-mode:lr-tb;fill:#000000;fill-opacity:1;fill-rule:nonzero;stroke:none"
           id="text154"><tspan
             x="0 51.479485 77.219223 128.69872"
             y="0"
             sodipodi:role="line"
             id="tspan152">3,34</tspan></text>
<path
           d="m 5585,4516 h -84"
           style="fill:none;stroke:#000000;stroke-width:6;stroke-linecap:round;stroke-linejoin:round;stroke-miterlimit:10;stroke-dasharray:none;stroke-opacity:1"
           id="path156"
           inkscape:connector-curvature="0" /><g
           id="g158"><path
             d="m 5585,4527 v -22 l 66,11 z"
             style="fill:#000000;fill-opacity:1;fill-rule:nonzero;stroke:#000000;stroke-width:6.25;stroke-linecap:round;stroke-linejoin:miter;stroke-miterlimit:10;stroke-dasharray:none;stroke-opacity:1"
             id="path160"
             inkscape:connector-curvature="0" /></g><g
           id="g162"><path
             d="m 5501,4527 v -22 l -66,11 z"
             style="fill:#000000;fill-opacity:1;fill-rule:nonzero;stroke:#000000;stroke-width:6.25;stroke-linecap:round;stroke-linejoin:miter;stroke-miterlimit:10;stroke-dasharray:none;stroke-opacity:1"
             id="path164"
             inkscape:connector-curvature="0" /></g><text
           transform="matrix(1,0,0,-1,5454,4546)"
           style="font-variant:normal;font-weight:normal;font-size:92.58899689px;font-family:Arial;-inkscape-font-specification:ArialMT;writing-mode:lr-tb;fill:#000000;fill-opacity:1;fill-rule:nonzero;stroke:none"
           id="text168"><tspan
             x="0 51.479485 77.219223 128.69872"
             y="0"
             sodipodi:role="line"
             id="tspan166">0,82</tspan></text>
<path
           d="M 7744,4516 H 5808"
           style="fill:none;stroke:#000000;stroke-width:6;stroke-linecap:round;stroke-linejoin:round;stroke-miterlimit:10;stroke-dasharray:none;stroke-opacity:1"
           id="path170"
           inkscape:connector-curvature="0" /><g
           id="g172"><path
             d="m 7744,4527 v -22 l 66,11 z"
             style="fill:#000000;fill-opacity:1;fill-rule:nonzero;stroke:#000000;stroke-width:6.25;stroke-linecap:round;stroke-linejoin:miter;stroke-miterlimit:10;stroke-dasharray:none;stroke-opacity:1"
             id="path174"
             inkscape:connector-curvature="0" /></g><g
           id="g176"><path
             d="m 5808,4527 v -22 l -67,11 z"
             style="fill:#000000;fill-opacity:1;fill-rule:nonzero;stroke:#000000;stroke-width:6.25;stroke-linecap:round;stroke-linejoin:miter;stroke-miterlimit:10;stroke-dasharray:none;stroke-opacity:1"
             id="path178"
             inkscape:connector-curvature="0" /></g><text
           transform="matrix(1,0,0,-1,6711,4546)"
           style="font-variant:normal;font-weight:normal;font-size:92.58899689px;font-family:Arial;-inkscape-font-specification:ArialMT;writing-mode:lr-tb;fill:#000000;fill-opacity:1;fill-rule:nonzero;stroke:none"
           id="text182"><tspan
             x="0 51.479485 77.219223"
             y="0"
             sodipodi:role="line"
             id="tspan180">7,8</tspan></text>
<path
           d="m 3389,4516 h -54"
           style="fill:none;stroke:#000000;stroke-width:6;stroke-linecap:round;stroke-linejoin:round;stroke-miterlimit:10;stroke-dasharray:none;stroke-opacity:1"
           id="path184"
           inkscape:connector-curvature="0" /><path
           d="M 3268,4516 H 3010"
           style="fill:none;stroke:#000000;stroke-width:6;stroke-linecap:round;stroke-linejoin:round;stroke-miterlimit:10;stroke-dasharray:none;stroke-opacity:1"
           id="path186"
           inkscape:connector-curvature="0" /><g
           id="g188"><path
             d="m 3389,4527 v -22 l 67,11 z"
             style="fill:#000000;fill-opacity:1;fill-rule:nonzero;stroke:#000000;stroke-width:6.25;stroke-linecap:round;stroke-linejoin:miter;stroke-miterlimit:10;stroke-dasharray:none;stroke-opacity:1"
             id="path190"
             inkscape:connector-curvature="0" /></g><g
           id="g192"><path
             d="m 3335,4527 v -22 l -67,11 z"
             style="fill:#000000;fill-opacity:1;fill-rule:nonzero;stroke:#000000;stroke-width:6.25;stroke-linecap:round;stroke-linejoin:miter;stroke-miterlimit:10;stroke-dasharray:none;stroke-opacity:1"
             id="path194"
             inkscape:connector-curvature="0" /></g><text
           transform="matrix(1,0,0,-1,3022,4546)"
           style="font-variant:normal;font-weight:normal;font-size:92.58899689px;font-family:Arial;-inkscape-font-specification:ArialMT;writing-mode:lr-tb;fill:#000000;fill-opacity:1;fill-rule:nonzero;stroke:none"
           id="text198"><tspan
             x="0 51.479485 77.219223 128.69872"
             y="0"
             sodipodi:role="line"
             id="tspan196">0,71</tspan></text>
<path
           d="M 3000,4516 H 2724"
           style="fill:none;stroke:#000000;stroke-width:6;stroke-linecap:round;stroke-linejoin:round;stroke-miterlimit:10;stroke-dasharray:none;stroke-opacity:1"
           id="path200"
           inkscape:connector-curvature="0" /><g
           id="g202"><path
             d="m 3000,4527 v -22 l 67,11 z"
             style="fill:#000000;fill-opacity:1;fill-rule:nonzero;stroke:#000000;stroke-width:6.25;stroke-linecap:round;stroke-linejoin:miter;stroke-miterlimit:10;stroke-dasharray:none;stroke-opacity:1"
             id="path204"
             inkscape:connector-curvature="0" /></g><g
           id="g206"><path
             d="m 2724,4527 v -22 l -66,11 z"
             style="fill:#000000;fill-opacity:1;fill-rule:nonzero;stroke:#000000;stroke-width:6.25;stroke-linecap:round;stroke-linejoin:miter;stroke-miterlimit:10;stroke-dasharray:none;stroke-opacity:1"
             id="path208"
             inkscape:connector-curvature="0" /></g><text
           transform="matrix(1,0,0,-1,2769,4546)"
           style="font-variant:normal;font-weight:normal;font-size:92.58899689px;font-family:Arial;-inkscape-font-specification:ArialMT;writing-mode:lr-tb;fill:#000000;fill-opacity:1;fill-rule:nonzero;stroke:none"
           id="text212"><tspan
             x="0 51.479485 77.219223 128.69872"
             y="0"
             sodipodi:role="line"
             id="tspan210">1,54</tspan></text>
<path
           d="m 2316,4510 h 143"
           style="fill:none;stroke:#000000;stroke-width:6;stroke-linecap:round;stroke-linejoin:round;stroke-miterlimit:10;stroke-dasharray:none;stroke-opacity:1"
           id="path214"
           inkscape:connector-curvature="0" /><g
           id="g216"><path
             d="m 2316,4521 v -22 l -66,11 z"
             style="fill:#000000;fill-opacity:1;fill-rule:nonzero;stroke:#000000;stroke-width:6.25;stroke-linecap:round;stroke-linejoin:miter;stroke-miterlimit:10;stroke-dasharray:none;stroke-opacity:1"
             id="path218"
             inkscape:connector-curvature="0" /></g><g
           id="g220"><path
             d="m 2459,4521 v -22 l 66,11 z"
             style="fill:#000000;fill-opacity:1;fill-rule:nonzero;stroke:#000000;stroke-width:6.25;stroke-linecap:round;stroke-linejoin:miter;stroke-miterlimit:10;stroke-dasharray:none;stroke-opacity:1"
             id="path222"
             inkscape:connector-curvature="0" /></g><text
           transform="matrix(1,0,0,-1,2295,4540)"
           style="font-variant:normal;font-weight:normal;font-size:92.58899689px;font-family:Arial;-inkscape-font-specification:ArialMT;writing-mode:lr-tb;fill:#000000;fill-opacity:1;fill-rule:nonzero;stroke:none"
           id="text226"><tspan
             x="0 51.479485 77.219223 128.69872"
             y="0"
             sodipodi:role="line"
             id="tspan224">1,04</tspan></text>
<path
           d="m 1744,4510 h 401"
           style="fill:none;stroke:#000000;stroke-width:6;stroke-linecap:round;stroke-linejoin:round;stroke-miterlimit:10;stroke-dasharray:none;stroke-opacity:1"
           id="path228"
           inkscape:connector-curvature="0" /><g
           id="g230"><path
             d="m 1744,4521 v -22 l -66,11 z"
             style="fill:#000000;fill-opacity:1;fill-rule:nonzero;stroke:#000000;stroke-width:6.25;stroke-linecap:round;stroke-linejoin:miter;stroke-miterlimit:10;stroke-dasharray:none;stroke-opacity:1"
             id="path232"
             inkscape:connector-curvature="0" /></g><g
           id="g234"><path
             d="m 2145,4521 v -22 l 66,11 z"
             style="fill:#000000;fill-opacity:1;fill-rule:nonzero;stroke:#000000;stroke-width:6.25;stroke-linecap:round;stroke-linejoin:miter;stroke-miterlimit:10;stroke-dasharray:none;stroke-opacity:1"
             id="path236"
             inkscape:connector-curvature="0" /></g><text
           transform="matrix(1,0,0,-1,1861,4540)"
           style="font-variant:normal;font-weight:normal;font-size:92.58899689px;font-family:Arial;-inkscape-font-specification:ArialMT;writing-mode:lr-tb;fill:#000000;fill-opacity:1;fill-rule:nonzero;stroke:none"
           id="text240"><tspan
             x="0 51.479485 77.219223 128.69872"
             y="0"
             sodipodi:role="line"
             id="tspan238">2,01</tspan></text>
</g></g><g
       id="g242"><g
         id="g244"
         clip-path="url(#clipPath248)"><path
           d="M 9920,0 H 0 v 7014"
           style="fill:none;stroke:#000000;stroke-width:24;stroke-linecap:round;stroke-linejoin:round;stroke-miterlimit:10;stroke-dasharray:none;stroke-opacity:1"
           id="path250"
           inkscape:connector-curvature="0" /></g></g></g></svg>